<svg width="23" height="22" viewBox="0 0 23 22" fill="none" xmlns="http://www.w3.org/2000/svg">
<path d="M6.75 0.5L6 1.25V3.5405C6.49851 3.48599 7.00149 3.48599 7.5 3.5405V2H21V9.5H18.4395L16.5 11.4395V9.5H13.4595C13.514 9.99851 13.514 10.5015 13.4595 11H15V13.25L16.281 13.781L19.0605 11H21.75L22.5 10.25V1.25L21.75 0.5H6.75Z" fill="#265599"/>
<path fill-rule="evenodd" clip-rule="evenodd" d="M9.6255 14.6435C10.5714 14.0243 11.2921 13.1163 11.6805 12.0545C12.0689 10.9928 12.1041 9.83405 11.7811 8.75066C11.458 7.66727 10.7938 6.71711 9.88734 6.04151C8.98087 5.36592 7.88054 5.00098 6.75 5.00098C5.61946 5.00098 4.51913 5.36592 3.61266 6.04151C2.70619 6.71711 2.04202 7.66727 1.71894 8.75066C1.39586 9.83405 1.43113 10.9928 1.81951 12.0545C2.20789 13.1163 2.92862 14.0243 3.8745 14.6435C2.71596 15.189 1.7365 16.0528 1.05045 17.1341C0.364399 18.2153 7.23459e-05 19.4694 0 20.75L0 21.5H1.5V20.75C1.54604 19.3883 2.11933 18.0978 3.09887 17.1508C4.0784 16.2038 5.38755 15.6745 6.75 15.6745C8.11245 15.6745 9.4216 16.2038 10.4011 17.1508C11.3807 18.0978 11.954 19.3883 12 20.75V21.5H13.5V20.75C13.4999 19.4694 13.1356 18.2153 12.4496 17.1341C11.7635 16.0528 10.784 15.189 9.6255 14.6435ZM6.75 14C5.75544 14 4.80161 13.6049 4.09835 12.9016C3.39509 12.1984 3 11.2445 3 10.25C3 9.25541 3.39509 8.30158 4.09835 7.59832C4.80161 6.89506 5.75544 6.49997 6.75 6.49997C7.74456 6.49997 8.69839 6.89506 9.40165 7.59832C10.1049 8.30158 10.5 9.25541 10.5 10.25C10.5 11.2445 10.1049 12.1984 9.40165 12.9016C8.69839 13.6049 7.74456 14 6.75 14Z" fill="#265599"/>
</svg>
