<svg width="24" height="24" viewBox="0 0 24 24" fill="none" xmlns="http://www.w3.org/2000/svg">
<path d="M5.856 6.84012C5.74176 6.77851 5.61348 6.7476 5.48371 6.75042C5.35395 6.75324 5.22713 6.78969 5.11567 6.8562C5.00421 6.92272 4.91192 7.01702 4.84782 7.12988C4.78373 7.24275 4.75002 7.37032 4.75 7.50012V17.0001C4.75 17.199 4.82902 17.3898 4.96967 17.5305C5.11032 17.6711 5.30109 17.7501 5.5 17.7501C5.69891 17.7501 5.88968 17.6711 6.03033 17.5305C6.17098 17.3898 6.25 17.199 6.25 17.0001V8.75612L11.644 11.6601C11.866 11.7801 12.134 11.7801 12.356 11.6601L17.75 8.75612V17.0001C17.75 17.199 17.829 17.3898 17.9697 17.5305C18.1103 17.6711 18.3011 17.7501 18.5 17.7501C18.6989 17.7501 18.8897 17.6711 19.0303 17.5305C19.171 17.3898 19.25 17.199 19.25 17.0001V7.50012C19.25 7.37032 19.2163 7.24275 19.1522 7.12988C19.0881 7.01702 18.9958 6.92272 18.8843 6.8562C18.7729 6.78969 18.6461 6.75324 18.5163 6.75042C18.3865 6.7476 18.2582 6.77851 18.144 6.84012L12 10.1481L5.856 6.84012Z" fill="#613994"/>
<path fill-rule="evenodd" clip-rule="evenodd" d="M17.3098 3.72188C13.7768 3.40586 10.2227 3.40586 6.68978 3.72188L5.17178 3.85688C4.38107 3.92749 3.63724 4.26256 3.06042 4.80799C2.4836 5.35342 2.10748 6.07735 1.99278 6.86288C1.49459 10.2694 1.49459 13.7303 1.99278 17.1369C2.10772 17.9224 2.48409 18.6462 3.06109 19.1915C3.63809 19.7367 4.38204 20.0715 5.17278 20.1419L6.68878 20.2779C10.2228 20.5939 13.7768 20.5939 17.3108 20.2779L18.8278 20.1419C19.6183 20.0713 20.3621 19.7364 20.9389 19.1912C21.5157 18.6459 21.8919 17.9222 22.0068 17.1369C22.505 13.7303 22.505 10.2694 22.0068 6.86288C21.892 6.0772 21.5158 5.35314 20.9387 4.8077C20.3617 4.26225 19.6177 3.92727 18.8268 3.85688L17.3098 3.72188ZM6.82378 5.21588C10.2682 4.9072 13.7333 4.9072 17.1778 5.21588L18.6948 5.35188C19.1495 5.39227 19.5774 5.58479 19.9093 5.89833C20.2412 6.21187 20.4576 6.62813 20.5238 7.07988C21.0009 10.3425 21.0009 13.6572 20.5238 16.9199C20.4576 17.3716 20.2412 17.7879 19.9093 18.1014C19.5774 18.415 19.1495 18.6075 18.6948 18.6479L17.1778 18.7839C13.7338 19.0919 10.2678 19.0919 6.82378 18.7839L5.30678 18.6479C4.85201 18.6075 4.42413 18.415 4.09227 18.1014C3.7604 17.7879 3.54391 17.3716 3.47778 16.9199C3.00063 13.6572 3.00063 10.3425 3.47778 7.07988C3.54391 6.62813 3.7604 6.21187 4.09227 5.89833C4.42413 5.58479 4.85201 5.39227 5.30678 5.35188L6.82378 5.21588Z" fill="#613994"/>
</svg>
