<svg width="11" height="23" viewBox="0 0 11 23" fill="none" xmlns="http://www.w3.org/2000/svg">
<path d="M7.87988 0.677992C7.72588 0.761993 7.05388 1.34999 6.39588 1.96599C5.27588 3.01599 4.85588 3.30999 3.02188 4.34599C2.51788 4.62599 2.34988 4.80799 2.34988 5.05999C2.34988 5.42399 2.43388 5.52199 3.37188 6.24999C4.19788 6.89399 4.58988 7.48199 4.58988 8.09799C4.58988 9.41399 2.78388 9.37199 2.32188 8.05599C2.15388 7.55199 1.80388 7.53799 1.27188 7.98599C0.949883 8.26599 0.879883 8.43399 0.879883 8.95199C0.879883 9.63799 1.17388 10.142 1.84588 10.646C2.13988 10.884 2.43388 10.94 3.16188 10.94C4.70188 10.926 5.62588 10.268 5.97588 8.95199C6.29788 7.74799 5.56988 6.38999 4.02988 5.39599L3.67988 5.17199L4.30988 4.84999C5.28988 4.35999 6.61988 3.36599 7.16588 2.72199C7.62788 2.18999 7.66988 2.16199 7.66988 2.48399C7.66988 5.39599 7.02588 17.688 6.81588 18.78C6.45188 20.768 5.35988 21.692 3.88988 21.244C3.13388 21.02 2.86788 20.544 2.93788 19.578C2.99388 18.892 3.06388 18.738 3.51188 18.346C4.01588 17.926 4.01588 17.898 3.76388 17.674C3.18988 17.156 2.15388 17.926 1.85988 19.102C1.59388 20.096 1.80388 20.964 2.47588 21.636C3.09188 22.252 3.81988 22.49 5.03788 22.49C6.45188 22.49 7.30588 22.168 8.15988 21.314C8.95788 20.516 9.36388 19.564 9.61588 17.87C9.88188 16.05 10.1059 11.108 10.1199 6.66999C10.1199 2.58199 10.0919 2.04999 9.86788 1.44799C9.72788 1.08399 9.48988 0.719992 9.34988 0.649992C8.99988 0.467993 8.22988 0.481993 7.87988 0.677992Z" fill="black"/>
</svg>
