<svg width="19" height="18" viewBox="0 0 19 18" fill="none" xmlns="http://www.w3.org/2000/svg">
<path d="M17.71 4.04006C17.37 4.38006 17.04 4.71006 17.03 5.04006C17 5.36006 17.34 5.69006 17.66 6.00006C18.14 6.50006 18.61 6.95006 18.59 7.44006C18.57 7.93006 18.06 8.44006 17.55 8.94006L13.42 13.0801L12 11.6601L16.25 7.42006L15.29 6.46006L13.87 7.87006L10.12 4.12006L13.96 0.290059C14.35 -0.0999414 15 -0.0999414 15.37 0.290059L17.71 2.63006C18.1 3.00006 18.1 3.65006 17.71 4.04006ZM0 14.2501L9.56 4.68006L13.31 8.43006L3.75 18.0001H0V14.2501Z" fill="#613994"/>
</svg>
