<svg width="19" height="19" viewBox="0 0 19 19" fill="none" xmlns="http://www.w3.org/2000/svg">
<path d="M5.97158 1.22617L7.95626 5.65492C8.04224 5.85558 8.07681 6.07452 8.05684 6.29191C8.03687 6.50931 7.96299 6.71828 7.84189 6.89992C7.83001 6.91832 7.81685 6.93586 7.80251 6.95242L5.83377 9.26711C5.82067 9.29112 5.81334 9.31786 5.81237 9.3452C5.81139 9.37253 5.81679 9.39972 5.82814 9.42461C6.54627 10.9124 8.07814 12.4537 9.54533 13.1746C9.56984 13.1866 9.59678 13.1929 9.62408 13.1929C9.65137 13.1929 9.67831 13.1866 9.70283 13.1746L12.0466 11.1993C12.0639 11.1851 12.0821 11.172 12.101 11.1599C12.2833 11.0405 12.4925 10.9684 12.7097 10.95C12.9269 10.9317 13.1452 10.9677 13.345 11.0549L17.7663 13.0255C18.0273 13.1375 18.2449 13.331 18.3866 13.5771C18.5282 13.8232 18.5862 14.1087 18.5519 14.3905C18.3908 15.6156 17.7892 16.7402 16.8594 17.554C15.9296 18.3679 14.7353 18.8153 13.4997 18.8127C6.15908 18.8127 0.187202 12.8409 0.187202 5.50023C0.184835 4.26465 0.632345 3.07046 1.44614 2.14072C2.25994 1.21099 3.38437 0.609297 4.60939 0.448048C4.88996 0.413778 5.1741 0.470999 5.41953 0.6112C5.66497 0.7514 5.85858 0.967085 5.97158 1.22617ZM1.3122 5.50023C1.3122 12.2202 6.7797 17.6877 13.4997 17.6877C14.4616 17.6909 15.3918 17.3437 16.1164 16.711C16.8411 16.0783 17.3106 15.2035 17.4372 14.2499V14.2284C17.4365 14.1906 17.4244 14.1539 17.4025 14.1231C17.3806 14.0923 17.3499 14.0689 17.3144 14.0559L12.8978 12.0777C12.8733 12.0665 12.8466 12.0606 12.8195 12.0606C12.7925 12.0606 12.7658 12.0665 12.7413 12.0777L10.3919 14.0568C10.3751 14.0715 10.3572 14.085 10.3385 14.0971C10.1494 14.2209 9.93157 14.2939 9.70606 14.3088C9.48055 14.3238 9.25501 14.2802 9.05126 14.1824C7.34877 13.3509 5.64627 11.6352 4.8147 9.91398C4.71744 9.70905 4.67495 9.4824 4.69138 9.25616C4.70781 9.02991 4.7826 8.81178 4.90845 8.62305C4.92064 8.60523 4.93377 8.58742 4.94783 8.57055L6.91658 6.2568C6.92886 6.23395 6.93605 6.20871 6.93767 6.18282C6.93929 6.15693 6.93529 6.131 6.92595 6.1068L4.94127 1.67711C4.92586 1.64093 4.89946 1.6105 4.86581 1.59015C4.83216 1.56979 4.79297 1.56053 4.75377 1.56367C3.79975 1.68965 2.92426 2.1587 2.29089 2.88317C1.65752 3.60764 1.30962 4.53794 1.3122 5.50023Z" fill="black"/>
</svg>
