<svg width="21" height="21" viewBox="0 0 21 21" fill="none" xmlns="http://www.w3.org/2000/svg">
<path d="M6 17C7.1 17 8 17.9 8 19C8 20.1 7.1 21 6 21C4.9 21 4 20.1 4 19C4 17.9 4.9 17 6 17ZM16 17C17.1 17 18 17.9 18 19C18 20.1 17.1 21 16 21C14.9 21 14 20.1 14 19C14 17.9 14.9 17 16 17ZM6.2 13.8C6.2 13.9 6.3 14 6.4 14H18V16H6C4.9 16 4 15.1 4 14C4 13.6 4.1 13.3 4.2 13L5.5 10.6L2 3H0V1H3.3L7.6 10H14.6L18.5 3L20.2 4L16.3 11C16 11.6 15.3 12 14.6 12H7.1L6.2 13.6V13.8ZM8.4 0C9.2 0 9.8 0.6 9.8 1.4C9.8 2.2 9.2 2.8 8.4 2.8C7.6 2.8 7 2.2 7 1.4C7 0.6 7.7 0 8.4 0ZM13.6 8C12.8 8 12.2 7.4 12.2 6.6C12.2 5.8 12.8 5.2 13.6 5.2C14.4 5.2 15 5.8 15 6.6C15 7.4 14.3 8 13.6 8ZM8.2 8L7 6.8L13.8 0L15 1.2L8.2 8Z" fill="#63A6B9"/>
</svg>
