<svg width="24" height="18" viewBox="0 0 24 18" fill="none" xmlns="http://www.w3.org/2000/svg">
<path fill-rule="evenodd" clip-rule="evenodd" d="M11.9998 9.29761V11.4C11.3633 11.4 10.7528 11.1472 10.3028 10.6971C9.85267 10.247 9.59981 9.63653 9.59981 9.00001C9.59981 8.36349 9.85267 7.75304 10.3028 7.30296C10.7528 6.85287 11.3633 6.60001 11.9998 6.60001V9.29761ZM11.9998 5.00001C10.9389 5.00001 9.92153 5.42144 9.17139 6.17159C8.42124 6.92173 7.99981 7.93915 7.99981 9.00001C7.99981 10.0609 8.42124 11.0783 9.17139 11.8284C9.92153 12.5786 10.9389 13 11.9998 13V17.8C7.70221 17.8 4.70221 15.6432 2.80461 13.536C1.77055 12.3787 0.903481 11.0824 0.228614 9.68481C0.173421 9.56749 0.12061 9.44907 0.0702138 9.32961L0.0606138 9.30721L0.0590138 9.30081L0.0574138 9.29761C-0.0191379 9.1066 -0.0191379 8.89343 0.0574138 8.70241V8.69921L0.0606138 8.69281L0.0702138 8.67041C0.11993 8.55042 0.173288 8.43196 0.230214 8.31521C0.90521 6.91819 1.77227 5.62244 2.80621 4.46561C4.70061 2.35681 7.70061 0.200012 11.9998 0.200012V5.00001ZM11.9998 6.60001V11.4C12.6363 11.4 13.2468 11.1472 13.6969 10.6971C14.147 10.247 14.3998 9.63653 14.3998 9.00001C14.3998 8.36349 14.147 7.75304 13.6969 7.30296C13.2468 6.85287 12.6363 6.60001 11.9998 6.60001ZM11.9998 13C13.0607 13 14.0781 12.5786 14.8282 11.8284C15.5784 11.0783 15.9998 10.0609 15.9998 9.00001C15.9998 7.93915 15.5784 6.92173 14.8282 6.17159C14.0781 5.42144 13.0607 5.00001 11.9998 5.00001V0.200012C16.2974 0.200012 19.2974 2.35681 21.195 4.46561C22.229 5.62244 23.096 6.91819 23.771 8.31521C23.8262 8.43253 23.879 8.55095 23.9294 8.67041L23.9374 8.69281L23.9406 8.69921L23.9422 8.70241C24.0188 8.89343 24.0188 9.1066 23.9422 9.29761V9.30081L23.9374 9.30721L23.9294 9.32961C23.8809 9.45013 23.8275 9.56863 23.7694 9.68481C23.0944 11.0818 22.2274 12.3776 21.1934 13.5344C19.299 15.6448 16.299 17.8 11.9998 17.8V13Z" fill="#ED7D31"/>
</svg>
